<?xml version="1.0" encoding="UTF-8"?>
<!DOCTYPE svg PUBLIC "-//W3C//DTD SVG 1.1//EN" "http://www.w3.org/Graphics/SVG/1.1/DTD/svg11.dtd">
<svg xmlns="http://www.w3.org/2000/svg" version="1.1" width="512px" height="512px" style="shape-rendering:geometricPrecision; text-rendering:geometricPrecision; image-rendering:optimizeQuality; fill-rule:evenodd; clip-rule:evenodd" xmlns:xlink="http://www.w3.org/1999/xlink">
<g><path style="opacity:0.965" fill="#000000" d="M 13.5,-0.5 C 18.1667,-0.5 22.8333,-0.5 27.5,-0.5C 30.7368,0.792465 33.7368,2.6258 36.5,5C 109.347,78.0136 182.347,150.847 255.5,223.5C 329.32,150.18 402.986,76.6803 476.5,3C 478.727,2.05898 480.727,0.892318 482.5,-0.5C 487.167,-0.5 491.833,-0.5 496.5,-0.5C 503.762,2.67501 508.762,8.00835 511.5,15.5C 511.5,19.1667 511.5,22.8333 511.5,26.5C 510.379,28.7415 509.213,31.0748 508,33.5C 434.167,107.333 360.333,181.167 286.5,255C 359.667,328.167 432.833,401.333 506,474.5C 508.13,477.767 509.963,481.1 511.5,484.5C 511.5,488.167 511.5,491.833 511.5,495.5C 508.399,503.602 502.733,508.935 494.5,511.5C 491.167,511.5 487.833,511.5 484.5,511.5C 481.1,509.963 477.767,508.13 474.5,506C 401.333,432.833 328.167,359.667 255,286.5C 181.167,360.333 107.333,434.167 33.5,508C 31.0748,509.213 28.7415,510.379 26.5,511.5C 22.8333,511.5 19.1667,511.5 15.5,511.5C 8.00835,508.762 2.67501,503.762 -0.5,496.5C -0.5,491.833 -0.5,487.167 -0.5,482.5C 0.892318,480.727 2.05898,478.727 3,476.5C 76.6803,402.986 150.18,329.32 223.5,255.5C 150.847,182.347 78.0136,109.347 5,36.5C 2.6258,33.7368 0.792465,30.7368 -0.5,27.5C -0.5,23.1667 -0.5,18.8333 -0.5,14.5C 2.07924,7.58628 6.74591,2.58628 13.5,-0.5 Z"/></g>
</svg>
