<svg width="223" height="231" viewBox="0 0 223 231" fill="none" xmlns="http://www.w3.org/2000/svg">
<path d="M141.706 50.4318L143.94 53.3557L147.56 52.6889L147.56 52.6889L147.561 52.6887L147.568 52.6874L147.601 52.6814L147.737 52.6565C147.86 52.6343 148.045 52.6011 148.287 52.5578C148.773 52.4714 149.49 52.3451 150.409 52.1879C152.247 51.8733 154.888 51.435 158.082 50.9431C164.479 49.9578 173.053 48.7642 181.823 47.9164C190.645 47.0635 199.442 46.5836 206.365 46.9582C209.845 47.1465 212.587 47.539 214.523 48.0908C215.566 48.3881 216.125 48.6605 216.39 48.811C216.431 49.1322 216.479 49.8222 216.337 51.0492C216.092 53.1671 215.391 55.9853 214.232 59.4097C211.927 66.2244 208.139 74.5057 204.016 82.6514C199.915 90.754 195.577 98.5362 192.257 104.305C190.599 107.186 189.199 109.556 188.216 111.203C187.725 112.026 187.338 112.668 187.075 113.102C186.944 113.319 186.843 113.484 186.777 113.593L186.702 113.715L186.684 113.745L186.68 113.751L186.679 113.752L186.679 113.752L184.86 116.718L186.53 119.77L186.53 119.77L186.531 119.771L186.535 119.778L186.552 119.81L186.625 119.943C186.689 120.062 186.787 120.241 186.914 120.477C187.168 120.949 187.543 121.647 188.017 122.541C188.967 124.33 190.317 126.904 191.909 130.031C195.099 136.292 199.244 144.728 203.099 153.487C206.974 162.293 210.462 171.218 212.429 178.51C213.417 182.175 213.949 185.171 214.036 187.402C214.094 188.906 213.933 189.643 213.858 189.916C213.619 190.04 213.01 190.305 211.741 190.516C209.737 190.848 206.942 190.9 203.42 190.625C196.412 190.077 187.64 188.33 178.882 186.165C170.178 184.013 161.724 181.507 155.429 179.533C152.287 178.547 149.694 177.697 147.891 177.096C146.989 176.795 146.286 176.556 145.81 176.394C145.573 176.312 145.392 176.25 145.272 176.209L145.139 176.162L145.107 176.151L145.1 176.149L145.1 176.149L145.099 176.149L140.674 174.604L138.105 178.523L138.104 178.523L138.104 178.524L138.101 178.528L138.086 178.551L138.019 178.652C137.958 178.744 137.865 178.884 137.741 179.069C137.494 179.439 137.124 179.987 136.644 180.688C135.684 182.088 134.287 184.094 132.549 186.489C129.067 191.291 124.258 197.608 118.907 203.75C113.516 209.938 107.767 215.724 102.417 219.632C99.7445 221.583 97.366 222.921 95.3455 223.653C93.3228 224.386 92.0178 224.387 91.2171 224.183C90.6826 224.047 89.6276 223.507 88.1977 221.633C86.7888 219.786 85.3688 217.096 84.0079 213.6C81.2902 206.618 79.2026 197.47 77.6421 188.142C76.0922 178.877 75.1078 169.722 74.511 162.86C74.2132 159.436 74.0132 156.597 73.8879 154.62C73.8253 153.632 73.7814 152.861 73.7533 152.34C73.7393 152.079 73.7292 151.881 73.7227 151.751L73.7156 151.605L73.714 151.572L73.7137 151.564L73.7137 151.564L73.7137 151.563L73.5531 148.034L70.3886 146.463L70.3884 146.463L70.3872 146.462L70.3797 146.459L70.3462 146.442L70.2064 146.372C70.0813 146.309 69.8933 146.215 69.6466 146.091C69.1532 145.842 68.4251 145.473 67.4963 144.997C65.6385 144.044 62.9799 142.663 59.792 140.958C53.4074 137.543 44.9393 132.851 36.5423 127.711C28.0993 122.543 19.9296 117.044 14.0313 112.024C11.0671 109.502 8.8896 107.278 7.54121 105.44C6.53855 104.073 6.30083 103.338 6.24008 103.124C6.3363 102.904 6.68601 102.22 7.85961 101.073C9.38305 99.5835 11.7123 97.8845 14.8087 96.049C20.9752 92.3934 29.2607 88.7312 37.7546 85.4384C46.1972 82.1654 54.6212 79.3428 60.9519 77.3343C64.1124 76.3316 66.7398 75.5354 68.5728 74.9911C69.4891 74.719 70.2062 74.5101 70.6914 74.3699C70.9339 74.2999 71.1185 74.247 71.2409 74.2121L71.3774 74.1733L71.4098 74.1642L71.4168 74.1622L71.4176 74.1619L71.418 74.1618L75.3384 73.0576L75.7588 69.0067L75.7589 69.006L75.7589 69.0059L75.7595 69L75.7625 68.9713L75.7759 68.8467C75.7879 68.7344 75.8065 68.5641 75.8316 68.3396C75.8818 67.8905 75.9581 67.2247 76.0611 66.372C76.2673 64.666 76.58 62.215 77.004 59.2566C77.8537 53.3283 79.1427 45.4165 80.9037 37.403C82.6771 29.3334 84.8745 21.4188 87.476 15.3657C88.7791 12.3337 90.0858 10.0028 91.333 8.4023C92.6229 6.74698 93.4589 6.36973 93.6876 6.30531C93.9163 6.2409 94.8262 6.12638 96.7905 6.86512C98.6897 7.57939 101.021 8.88568 103.715 10.7918C109.093 14.5973 115.098 20.2015 120.823 26.1593C126.507 32.0756 131.736 38.1516 135.555 42.765C137.461 45.0671 139.007 46.9946 140.073 48.3422C140.606 49.0158 141.018 49.5439 141.296 49.9007C141.434 50.0792 141.539 50.2147 141.608 50.3042L141.684 50.4035L141.702 50.4265L141.705 50.4312L141.705 50.4313L141.706 50.4318Z" stroke="#F5E9B9" stroke-width="12"/>
</svg>
