<svg width="169" height="175" viewBox="0 0 169 175" fill="none" xmlns="http://www.w3.org/2000/svg">
<path d="M154.492 82.2364C156.252 80.5052 156.702 77.5864 155.743 74.122C154.784 70.6576 152.495 66.9314 149.379 63.7631L125.88 39.8715C122.764 36.7032 119.076 34.3525 115.628 33.3363C112.18 32.3202 109.254 32.7219 107.494 34.4531C105.734 36.1842 105.284 39.1031 106.243 42.5675C107.201 46.0319 109.491 49.7581 112.607 52.9263L136.106 76.818C139.222 79.9863 142.91 82.337 146.358 83.3532C149.806 84.3693 152.732 83.9676 154.492 82.2364Z" fill="#8AD5FF"/>
<path d="M103.395 119.95C105.643 118.929 107.068 116.342 107.358 112.76C107.648 109.177 106.778 104.891 104.94 100.845L91.0803 70.334C89.2424 66.288 86.5868 62.8134 83.6977 60.6744C80.8087 58.5355 77.9229 57.9075 75.6751 58.9286C73.4274 59.9497 72.0018 62.5362 71.712 66.1191C71.4222 69.7021 72.292 73.988 74.1299 78.034L87.9899 108.545C89.8278 112.591 92.4834 116.065 95.3725 118.204C98.2615 120.343 101.147 120.971 103.395 119.95Z" fill="#8AD5FF"/>
<path d="M45.721 133.946C48.1717 133.648 50.3089 131.61 51.6625 128.28C53.016 124.949 53.475 120.6 52.9384 116.189L48.8921 82.9229C48.3556 78.5115 46.8674 74.3993 44.7551 71.4907C42.6427 68.5822 40.0792 67.1157 37.6284 67.4138C35.1777 67.7119 33.0404 69.7502 31.6869 73.0803C30.3334 76.4104 29.8744 80.7595 30.411 85.1708L34.4573 118.437C34.9938 122.848 36.482 126.961 38.5943 129.869C40.7067 132.778 43.2702 134.244 45.721 133.946Z" fill="#8AD5FF"/>
</svg>
