<?xml version="1.0" encoding="UTF-8"?>
<!DOCTYPE svg PUBLIC "-//W3C//DTD SVG 1.1//EN" "http://www.w3.org/Graphics/SVG/1.1/DTD/svg11.dtd">
<svg xmlns="http://www.w3.org/2000/svg" version="1.1" width="512px" height="512px" style="shape-rendering:geometricPrecision; text-rendering:geometricPrecision; image-rendering:optimizeQuality; fill-rule:evenodd; clip-rule:evenodd" xmlns:xlink="http://www.w3.org/1999/xlink">
<g><path style="opacity:0.968" fill="#000000" d="M 511.5,84.5 C 511.5,89.1667 511.5,93.8333 511.5,98.5C 508.165,105.997 502.498,110.831 494.5,113C 335.167,113.667 175.833,113.667 16.5,113C 8.50176,110.831 2.83509,105.997 -0.5,98.5C -0.5,93.8333 -0.5,89.1667 -0.5,84.5C 2.83509,77.0028 8.50176,72.1694 16.5,70C 175.833,69.3333 335.167,69.3333 494.5,70C 502.498,72.1694 508.165,77.0028 511.5,84.5 Z"/></g>
<g><path style="opacity:0.989" fill="#000000" d="M 511.5,248.5 C 511.5,252.833 511.5,257.167 511.5,261.5C 509.016,268.816 504.016,273.649 496.5,276C 335.833,276.667 175.167,276.667 14.5,276C 6.98409,273.649 1.98409,268.816 -0.5,261.5C -0.5,257.167 -0.5,252.833 -0.5,248.5C 1.98409,241.184 6.98409,236.351 14.5,234C 175.167,233.333 335.833,233.333 496.5,234C 504.016,236.351 509.016,241.184 511.5,248.5 Z"/></g>
<g><path style="opacity:0.968" fill="#000000" d="M 511.5,411.5 C 511.5,416.167 511.5,420.833 511.5,425.5C 508.157,433.006 502.49,437.84 494.5,440C 335.167,440.667 175.833,440.667 16.5,440C 8.5098,437.84 2.84313,433.006 -0.5,425.5C -0.5,420.833 -0.5,416.167 -0.5,411.5C 2.94839,403.556 8.94839,398.723 17.5,397C 176.167,396.333 334.833,396.333 493.5,397C 502.052,398.723 508.052,403.556 511.5,411.5 Z"/></g>
</svg>
