<svg width="243" height="231" viewBox="0 0 243 231" fill="none" xmlns="http://www.w3.org/2000/svg">
<path d="M181 226C196.3 226 207.721 219.028 216.072 207.876C224.326 196.853 229.601 181.749 233.02 165.189C239.54 133.608 239.518 95.5853 239.502 67.5488C239.501 66.1746 239.5 64.8243 239.5 63.5C239.5 48.0881 231.794 36.547 219.742 28.0639C207.803 19.6601 191.481 14.145 173.687 10.4797C138.074 3.14349 95.392 3 67 3C51.5541 3 39.8363 10.9907 31.0969 23.3807C22.4238 35.6767 16.5308 52.4802 12.4887 70.7706C4.39688 107.386 3.5 151.052 3.5 179.5C3.5 195.033 11.6519 205.753 24.2883 212.906C36.75 219.96 53.7281 223.671 72.1104 225.566C98.0484 228.24 127.688 227.352 152.75 226.6C163.153 226.288 172.767 226 181 226Z" stroke="#8AD5FF" stroke-width="6"/>
</svg>
