<svg width="262" height="253" viewBox="0 0 262 253" fill="none" xmlns="http://www.w3.org/2000/svg">
<path d="M221.133 166.366C221.065 166.041 221.001 165.744 220.943 165.475C221.148 165.291 221.374 165.088 221.619 164.866C222.9 163.705 224.711 162.02 226.851 159.91C231.127 155.694 236.745 149.753 242.078 142.872C247.398 136.008 252.517 128.104 255.702 119.966C258.881 111.841 260.243 103.193 257.602 95.0583C254.961 86.9237 248.78 80.7272 241.436 76.0244C234.079 71.3137 225.295 67.931 216.96 65.5076C208.604 63.0781 200.569 61.576 194.635 60.6808C191.663 60.2326 189.209 59.9351 187.491 59.7491C187.163 59.7136 186.862 59.6821 186.589 59.6545C186.478 59.4029 186.355 59.1254 186.22 58.8235C185.512 57.2463 184.471 55.0019 183.127 52.3122C180.443 46.9403 176.532 39.7566 171.642 32.5537C166.763 25.369 160.835 18.0537 154.085 12.5069C147.347 6.96968 139.548 3 131 3C122.452 3 114.653 6.96968 107.915 12.5069C101.165 18.0537 95.2367 25.369 90.3583 32.5537C85.4677 39.7566 81.5575 46.9403 78.8731 52.3122C77.529 55.0019 76.4878 57.2463 75.7805 58.8235C75.6451 59.1254 75.5219 59.4029 75.4111 59.6545C75.1381 59.6821 74.8367 59.7136 74.5085 59.7491C72.7911 59.9351 70.3366 60.2326 67.3653 60.6808C61.4308 61.576 53.3959 63.0781 45.0398 65.5076C36.7048 67.931 27.921 71.3137 20.5642 76.0244C13.2199 80.7272 7.03868 86.9237 4.3978 95.0583C1.75701 103.193 3.11857 111.841 6.29809 119.966C9.48305 128.104 14.6024 136.008 19.9222 142.872C25.2554 149.753 30.8735 155.694 35.1488 159.91C37.2893 162.02 39.1004 163.705 40.3806 164.866C40.6259 165.088 40.8518 165.291 41.0569 165.475C40.9986 165.744 40.9352 166.041 40.8673 166.366C40.5133 168.058 40.0375 170.486 39.5452 173.453C38.5621 179.378 37.5066 187.49 37.2331 196.194C36.9603 204.877 37.4604 214.282 39.6632 222.74C41.8622 231.183 45.84 238.981 52.7547 244.009C59.6698 249.038 68.3107 250.414 77.0145 249.898C85.733 249.382 94.826 246.951 102.992 244.008C111.179 241.058 118.562 237.546 123.889 234.78C126.556 233.394 128.716 232.191 130.215 231.331C130.501 231.167 130.763 231.015 131 230.877C131.237 231.015 131.499 231.167 131.785 231.331C133.284 232.191 135.444 233.394 138.111 234.78C143.438 237.546 150.821 241.058 159.008 244.008C167.174 246.951 176.267 249.382 184.986 249.898C193.689 250.414 202.33 249.038 209.245 244.009C216.16 238.981 220.138 231.183 222.337 222.74C224.54 214.282 225.04 204.877 224.767 196.194C224.493 187.49 223.438 179.378 222.455 173.453C221.963 170.486 221.487 168.058 221.133 166.366Z" stroke="#8AD5FF" stroke-width="6"/>
</svg>
