<svg width="214" height="186" viewBox="0 0 214 186" fill="none" xmlns="http://www.w3.org/2000/svg">
<path d="M38.5877 3.3863C34.7006 2.53938 30.3672 4.50658 26.5407 8.85513C22.7142 13.2037 19.708 19.5774 18.1836 26.5741L6.68764 79.3362C5.16319 86.3329 5.24531 93.3795 6.91592 98.9257C8.58653 104.472 11.7088 108.064 15.5958 108.911C19.4829 109.758 23.8163 107.79 27.6428 103.442C31.4694 99.0932 34.4755 92.7195 35.9999 85.7228L47.4959 32.9607C49.0203 25.964 48.9382 18.9174 47.2676 13.3711C45.597 7.82488 42.4747 4.23322 38.5877 3.3863Z" fill="#8AD5FF"/>
<path d="M134.514 39.0343C131.154 36.9035 126.409 37.2621 121.321 40.0313C116.234 42.8005 111.221 47.7534 107.385 53.8004L78.4617 99.4012C74.6262 105.448 72.2824 112.094 71.9458 117.877C71.6092 123.659 73.3074 128.105 76.6669 130.236C80.0264 132.367 84.7719 132.008 89.8595 129.239C94.9471 126.47 99.96 121.517 103.796 115.47L132.719 69.869C136.554 63.8219 138.898 57.1761 139.235 51.3935C139.572 45.6109 137.873 41.1651 134.514 39.0343Z" fill="#8AD5FF"/>
<path d="M204.255 104.471C201.691 101.428 197.057 100.344 191.373 101.455C185.688 102.567 179.418 105.784 173.942 110.398L132.647 145.194C127.171 149.808 122.938 155.442 120.878 160.856C118.819 166.27 119.102 171.02 121.666 174.063C124.229 177.105 128.863 178.189 134.548 177.078C140.232 175.966 146.502 172.75 151.978 168.135L193.273 133.339C198.749 128.725 202.982 123.091 205.042 117.677C207.101 112.264 206.818 107.513 204.255 104.471Z" fill="#8AD5FF"/>
</svg>
